<svg id="Layer_1" data-name="Layer 1" xmlns="http://www.w3.org/2000/svg" xmlns:xlink="http://www.w3.org/1999/xlink" viewBox="0 0 291.94 172.31"><defs><clipPath id="clip-path" transform="translate(0.12 0.03)"><rect width="292" height="172" fill="none"/></clipPath></defs><title>lts-bike-icon</title><g opacity="0.3"><g clip-path="url(#clip-path)"><path d="M232.38,172.28a59.45,59.45,0,1,1,59.44-59.44,59.51,59.51,0,0,1-59.44,59.44m0-109.3a49.86,49.86,0,1,0,49.85,49.86A49.92,49.92,0,0,0,232.38,63" transform="translate(0.12 0.03)" fill="#a50a0a"/><path d="M59.32,172.28a59.45,59.45,0,1,1,59.45-59.44,59.51,59.51,0,0,1-59.45,59.44m0-109.3a49.86,49.86,0,1,0,49.86,49.86A49.92,49.92,0,0,0,59.32,63" transform="translate(0.12 0.03)" fill="#a50a0a"/><path d="M228.17,115.13,169.66,8H218.2a18.73,18.73,0,0,1,18.66,15.74A18.51,18.51,0,0,1,218.57,45H214V35h4a8.72,8.72,0,0,0,8.82-8,8.51,8.51,0,0,0-8.48-9H185.8l50.79,92.54Z" transform="translate(0.12 0.03)" fill="#a50a0a"/><path d="M149.36,118H51l50.74-87.44ZM67.65,108h65.58L101.48,49.71Z" transform="translate(0.12 0.03)" fill="#a50a0a"/><rect x="88.33" y="8.72" width="9.59" height="31.15" transform="translate(-0.11 47.74) rotate(-28.71)" fill="#a50a0a"/><polygon points="105.12 18.03 74.56 18.03 63.6 7.06 70.67 0 78.7 8.03 105.12 8.03 105.12 18.03" fill="#a50a0a"/><path d="M140.78,121.73,93.54,35H201.88ZM109.68,45l32.14,59L183.4,45Z" transform="translate(0.12 0.03)" fill="#a50a0a"/><rect x="136.12" y="113.03" width="10" height="27" fill="#a50a0a"/><rect x="132.12" y="135.03" width="18" height="10" fill="#a50a0a"/></g></g></svg>